# xmcd
#
# Track frame offsets:
#	150
#	15926
#	40844
#	67404
#	92211
#	106060
#	121119
#	138721
#	158103
#	174439
#
# Disc length: 2589 seconds
# Revision: 0
# Processed by: cddbd v1.5.2PL0 Copyright (c) Steve Scherf et al.
# Submitted via: dBpowerAMP V12.0
#
DISCID=7e0a1b0a
DTITLE=Tweed Funk - Love Is
DYEAR=2012
DGENRE=Funk
TTITLE0=Fine Wine
TTITLE1=A Real Mother For Ya
TTITLE2=Gettin Home
TTITLE3=Dancemaker
TTITLE4=Pick Em Early
TTITLE5=Fragile
TTITLE6=Smooth Taste
TTITLE7=What Have I Done Wrong
TTITLE8=All Over You
TTITLE9=Sex Machine
EXTD=
EXTT0=
EXTT1=
EXTT2=
EXTT3=
EXTT4=
EXTT5=
EXTT6=
EXTT7=
EXTT8=
EXTT9=
PLAYORDER=
